<svg width="49" height="49" viewBox="0 0 49 49" fill="none" xmlns="http://www.w3.org/2000/svg">
<path d="M24.5 46.274C23.8024 46.274 23.1298 46.0212 22.6057 45.5622C20.6262 43.8313 18.7178 42.2047 17.034 40.7699L17.0254 40.7624C12.0889 36.5556 7.82596 32.9226 4.85991 29.3438C1.54433 25.343 0 21.5497 0 17.4056C0 13.3794 1.38059 9.66489 3.88718 6.94595C6.42369 4.19486 9.90413 2.67969 13.6885 2.67969C16.517 2.67969 19.1073 3.57391 21.3874 5.33732C22.538 6.22743 23.5811 7.3168 24.5 8.58749C25.4192 7.3168 26.4619 6.22743 27.6129 5.33732C29.893 3.57391 32.4833 2.67969 35.3118 2.67969C39.0958 2.67969 42.5766 4.19486 45.1131 6.94595C47.6197 9.66489 48.9999 13.3794 48.9999 17.4056C48.9999 21.5497 47.4559 25.343 44.1404 29.3435C41.1743 32.9226 36.9118 36.5552 31.976 40.7617C30.2892 42.1987 28.3778 43.8279 26.3938 45.5629C25.8701 46.0212 25.1972 46.274 24.5 46.274ZM13.6885 5.55003C10.7154 5.55003 7.98409 6.7366 5.99714 8.89142C3.98064 11.0788 2.86997 14.1024 2.86997 17.4056C2.86997 20.8909 4.16532 24.008 7.06968 27.5124C9.87684 30.8998 14.0523 34.458 18.8868 38.5781L18.8957 38.5856C20.5859 40.026 22.5018 41.6589 24.4958 43.4025C26.5019 41.6555 28.4208 40.02 30.1143 38.5773C34.9484 34.4572 39.1234 30.8998 41.9306 27.5124C44.8346 24.008 46.1299 20.8909 46.1299 17.4056C46.1299 14.1024 45.0193 11.0788 43.0028 8.89142C41.0162 6.7366 38.2845 5.55003 35.3118 5.55003C33.1338 5.55003 31.1341 6.24239 29.3685 7.60765C27.795 8.82487 26.6989 10.3636 26.0562 11.4403C25.7258 11.9939 25.1441 12.3244 24.5 12.3244C23.8558 12.3244 23.2741 11.9939 22.9437 11.4403C22.3014 10.3636 21.2053 8.82487 19.6314 7.60765C17.8658 6.24239 15.8661 5.55003 13.6885 5.55003Z" fill="#455C23"/>
</svg>
