<svg width="47" height="47" viewBox="0 0 47 47" fill="none" xmlns="http://www.w3.org/2000/svg">
<g clip-path="url(#clip0_41_137)">
<path d="M43.1956 12.1018C43.1715 10.8328 43.1485 9.63409 43.1485 8.47439C43.1485 7.56584 42.4121 6.82926 41.5033 6.82926C34.4677 6.82926 29.111 4.8073 24.6459 0.465938C24.0071 -0.15526 22.9907 -0.15504 22.3522 0.465938C17.8875 4.8073 12.5317 6.82926 5.49647 6.82926C4.58792 6.82926 3.85135 7.56584 3.85135 8.47439C3.85135 9.63431 3.82853 10.8335 3.80419 12.1026C3.5787 23.9115 3.26985 40.0844 22.9602 46.9094C23.1348 46.97 23.3169 47.0003 23.4989 47.0003C23.681 47.0003 23.8633 46.97 24.0376 46.9094C43.7295 40.0842 43.4211 23.9109 43.1956 12.1018ZM23.4991 43.6093C6.61208 37.4748 6.8674 24.0363 7.09399 12.1654C7.10759 11.4529 7.12075 10.7624 7.12996 10.0855C13.7192 9.80737 18.9884 7.81063 23.4991 3.88121C28.0103 7.81063 33.2804 9.80759 39.8701 10.0855C39.8793 10.7622 39.8924 11.4523 39.906 12.1643C40.1324 24.0357 40.3875 37.4746 23.4991 43.6093Z" fill="#455C23"/>
<path d="M29.1643 17.7853L21.224 25.7251L17.8357 22.3368C17.1933 21.6946 16.1516 21.6946 15.5093 22.3368C14.8668 22.9795 14.8668 24.021 15.5093 24.6635L20.0608 29.215C20.3819 29.5361 20.8031 29.6967 21.224 29.6967C21.645 29.6967 22.0661 29.5361 22.3872 29.215L31.4905 20.112C32.1332 19.4695 32.1332 18.4278 31.4907 17.7856C30.8484 17.1431 29.8067 17.1429 29.1643 17.7853Z" fill="#455C23"/>
</g>
<defs>
<clipPath id="clip0_41_137">
<rect width="47" height="47" fill="white"/>
</clipPath>
</defs>
</svg>
