<svg width="46" height="46" viewBox="0 0 46 46" fill="none" xmlns="http://www.w3.org/2000/svg">
<g clip-path="url(#clip0_41_161)">
<path d="M45.8764 17.6151C45.522 16.5244 44.4632 15.7745 42.9718 15.5578L31.1437 13.839L25.854 3.12111C25.187 1.76948 24.1467 0.994385 22.9999 0.994385C21.8531 0.994385 20.8129 1.76957 20.1459 3.12111L14.8564 13.8389L3.02832 15.5578C1.53671 15.7745 0.478061 16.5243 0.123622 17.615C-0.230727 18.7057 0.184986 19.9346 1.26421 20.9865L9.82304 29.3293L7.80251 41.1098C7.53684 42.6594 7.98813 43.586 8.41346 44.0905C8.91102 44.6806 9.63688 45.0057 10.4573 45.0057C11.0777 45.0057 11.7383 44.8237 12.4205 44.4649L23 38.9029L33.5794 44.4648C34.2618 44.8236 34.9223 45.0056 35.5428 45.0056C36.3634 45.0056 37.0893 44.6805 37.5869 44.0904C38.0122 43.5859 38.4635 42.6593 38.1978 41.1096L36.1769 29.3293L44.7358 20.9866C45.8149 19.9346 46.2307 18.7058 45.8764 17.6151ZM42.8543 19.0565L33.7881 27.8938C33.4704 28.2034 33.3255 28.6494 33.4005 29.0866L35.5411 41.5652C35.61 41.9671 35.5751 42.2081 35.5426 42.3101C35.4613 42.31 35.23 42.2873 34.8339 42.079L23.6272 36.1875C23.4308 36.0842 23.2154 36.0326 23.0001 36.0326C22.7847 36.0326 22.5693 36.0842 22.373 36.1875L11.1662 42.0791C10.7705 42.2872 10.5394 42.31 10.458 42.3101C10.4254 42.2081 10.3904 41.9671 10.4593 41.5652L12.5996 29.0865C12.6745 28.6494 12.5296 28.2033 12.212 27.8937L3.14574 19.0563C2.85339 18.7713 2.74009 18.5557 2.70667 18.4542C2.79337 18.3917 3.01178 18.2838 3.416 18.2251L15.9454 16.4043C16.3844 16.3405 16.7638 16.0647 16.9602 15.667L22.5633 4.31371C22.7438 3.94769 22.9139 3.7733 23.0002 3.71004C23.0864 3.7733 23.2566 3.94769 23.4372 4.3138L29.0404 15.667C29.2368 16.0647 29.6161 16.3405 30.0551 16.4043L42.5844 18.2251C42.9885 18.2837 43.2069 18.3916 43.2936 18.4542C43.26 18.5558 43.1467 18.7715 42.8543 19.0565Z" fill="#455C23"/>
</g>
<defs>
<clipPath id="clip0_41_161">
<rect width="46" height="46" fill="white"/>
</clipPath>
</defs>
</svg>
