<svg width="47" height="47" viewBox="0 0 47 47" fill="none" xmlns="http://www.w3.org/2000/svg">
<path d="M39.6562 17.6251C39.661 14.9867 39.0195 12.3873 37.7879 10.0541C36.5563 7.7208 34.772 5.72467 32.591 4.24009C30.4099 2.75551 27.8985 1.82766 25.2761 1.53762C22.6537 1.24758 20.0002 1.60418 17.5475 2.57624C15.0947 3.54831 12.9173 5.10627 11.2056 7.11399C9.49384 9.12171 8.29984 11.5181 7.72791 14.0937C7.15599 16.6693 7.22354 19.3458 7.92466 21.8893C8.62578 24.4328 9.93914 26.7659 11.75 28.6847V44.0626C11.7515 44.3189 11.8201 44.5703 11.949 44.7919C12.0778 45.0135 12.2624 45.1975 12.4843 45.3257C12.7076 45.4546 12.9609 45.5225 13.2187 45.5225C13.4765 45.5225 13.7298 45.4546 13.9531 45.3257L23.5 39.8766L33.0469 45.3404C33.2707 45.4672 33.5239 45.5331 33.7812 45.5313C34.0409 45.5364 34.2963 45.4649 34.5156 45.3257C34.7376 45.1975 34.9222 45.0135 35.051 44.7919C35.1798 44.5703 35.2484 44.3189 35.25 44.0626V28.6847C38.073 25.6934 39.6488 21.7381 39.6562 17.6251ZM23.5 4.40631C26.1144 4.40631 28.6701 5.18157 30.8439 6.63407C33.0177 8.08656 34.712 10.151 35.7125 12.5665C36.713 14.9819 36.9748 17.6397 36.4647 20.2039C35.9547 22.7681 34.6957 25.1234 32.847 26.9721C30.9984 28.8208 28.643 30.0798 26.0788 30.5898C23.5146 31.0999 20.8568 30.8381 18.4414 29.8376C16.026 28.8371 13.9615 27.1428 12.509 24.969C11.0565 22.7952 10.2812 20.2395 10.2812 17.6251C10.2812 14.1192 11.6739 10.757 14.1529 8.27799C16.6319 5.79899 19.9941 4.40631 23.5 4.40631ZM24.2344 36.9097C24.0111 36.7808 23.7578 36.713 23.5 36.713C23.2422 36.713 22.9889 36.7808 22.7656 36.9097L14.6875 41.5363V31.1522C17.3098 32.8588 20.3712 33.7673 23.5 33.7673C26.6287 33.7673 29.6901 32.8588 32.3125 31.1522V41.5363L24.2344 36.9097Z" fill="#455C23"/>
</svg>
